<svg data-v-423bf9ae="" xmlns="http://www.w3.org/2000/svg" viewBox="0 0 618 90" class="iconLeft"><!----><!----><!----><g data-v-423bf9ae="" id="5b44df08-7642-455c-8da3-c1cdaf116390" fill="white" transform="matrix(5.982054233551025,0,0,5.982054233551025,107.96610260009766,-9.945164680480957)"><path d="M0.34 9.16C0.34 12.03 2.53 14.20 5.49 14.20C6.93 14.20 8.48 13.48 9.53 12.40L8.08 10.86C7.39 11.56 6.44 12.01 5.61 12.01C4.06 12.01 2.88 10.77 2.88 9.13C2.88 7.52 4.06 6.29 5.61 6.29C6.48 6.29 7.43 6.78 8.08 7.56L9.52 5.85C8.54 4.84 7.03 4.20 5.57 4.20C2.59 4.20 0.34 6.33 0.34 9.16ZM9.62 14.08L12.18 14.08L12.89 12.28L17.18 12.28L17.88 14.08L20.54 14.08L16.41 4.28L13.85 4.28ZM13.62 10.39L15.05 6.76L16.45 10.39ZM21.45 14.08L23.94 14.08L23.94 11.33L25.83 11.33L25.90 11.33L27.36 14.08L30.18 14.08L28.13 10.85C29.27 10.28 29.90 9.20 29.90 7.70C29.90 5.52 28.42 4.28 25.83 4.28L21.45 4.28ZM23.94 9.37L23.94 6.24L25.83 6.24C26.91 6.24 27.54 6.76 27.54 7.78C27.54 8.82 26.91 9.37 25.83 9.37ZM31.58 14.08L35.70 14.08C38.85 14.08 41.01 12.08 41.01 9.18C41.01 6.27 38.88 4.28 35.80 4.28L31.58 4.28ZM34.08 12.10L34.08 6.27L35.74 6.27C37.32 6.27 38.47 7.46 38.47 9.20C38.47 10.92 37.38 12.10 35.85 12.10ZM41.58 12.60C42.74 13.55 44.42 14.17 46.06 14.17C48.24 14.17 49.98 13.13 49.98 11.17C49.98 7.63 44.80 8.60 44.80 6.90C44.80 6.43 45.23 6.19 45.88 6.19C46.68 6.19 47.98 6.61 49.01 7.21L49.95 5.26C48.94 4.61 47.50 4.17 46.09 4.17C43.74 4.17 42.18 5.32 42.18 7.13C42.18 10.60 47.36 9.56 47.36 11.30C47.36 11.86 46.87 12.15 46.09 12.15C45.07 12.15 43.55 11.56 42.55 10.68ZM51.13 10.56L54.82 10.56L54.82 9.03L51.13 9.03ZM55.69 6.29L58.62 6.29L58.62 14.08L61.11 14.08L61.11 6.29L64.06 6.29L64.06 4.27L55.69 4.27ZM64.48 9.17C64.48 12.04 66.75 14.20 69.78 14.20C72.81 14.20 75.08 12.03 75.08 9.17C75.08 6.33 72.81 4.20 69.78 4.20C66.75 4.20 64.48 6.31 64.48 9.17ZM67.03 9.18C67.03 7.53 68.29 6.29 69.80 6.29C71.32 6.29 72.52 7.53 72.52 9.18C72.52 10.84 71.32 12.11 69.80 12.11C68.31 12.11 67.03 10.84 67.03 9.18ZM76.40 14.08L78.89 14.08L78.89 11.33L80.78 11.33L80.85 11.33L82.31 14.08L85.13 14.08L83.08 10.85C84.22 10.28 84.85 9.20 84.85 7.70C84.85 5.52 83.37 4.28 80.78 4.28L76.40 4.28ZM78.89 9.37L78.89 6.24L80.78 6.24C81.86 6.24 82.49 6.76 82.49 7.78C82.49 8.82 81.86 9.37 80.78 9.37Z"></path></g><!----><g data-v-423bf9ae="" id="a0eaec0d-b581-4cb9-82c6-74c136ff62d8" transform="matrix(2.8125,0,0,2.8125,0,0)" stroke="none" fill="white"><path d="M16 32c8.837 0 16-7.163 16-16S24.837 0 16 0 0 7.163 0 16s7.163 16 16 16zM8.858 6.858h2v14.283h14.283v2H8.858V6.858z"></path></g><!----></svg>