<svg width="24" height="24" viewBox="0 0 24 24" fill="none" xmlns="http://www.w3.org/2000/svg">
<g clip-path="url(#clip0_3007_3)">
<path fill-rule="evenodd" clip-rule="evenodd" d="M6.85706 3.43505C7.3494 0.999026 9.72331 -0.576647 12.1593 -0.0843101L20.0008 1.5005C22.4368 1.99284 24.0125 4.36675 23.5202 6.80277L21.1429 18.565C20.6506 21.001 18.2767 24.5767 15.8407 24.0843L7.99921 23.4995C5.56319 23.0072 4.68071 23.1041 3.47985 21.1972L4.68071 22.2034C4.7354 21.9328 4.72933 22.1487 5 22.2034C5.27067 22.2581 5.71558 22.1309 5.66089 22.4015L5.46003 22.3953C5.0771 24.29 6.60531 22.6171 8.5 23L16.0388 23.1041C17.9335 23.4871 19.7798 20.2615 20.1628 18.3668L22.54 6.60467C22.9229 4.70998 21.6974 2.86361 19.8027 2.48068L11.9612 0.895872C10.0665 0.512942 8.5259 1.17513 8.14298 3.06982L8.14298 2.67878C8.08828 2.94941 7.8245 3.12453 7.55383 3.06982C7.28317 3.01512 7.1081 2.75131 7.16279 2.48068L6.85706 3.43505Z" fill="#D6B07D"/>
<path fill-rule="evenodd" clip-rule="evenodd" d="M2.5 7C2.5 4.51472 4.51472 2.5 7 2.5H15C17.4853 2.5 19.5 4.51472 19.5 7V19C19.5 21.4853 17.4853 23.5 15 23.5H7C4.51472 23.5 2.5 21.4853 2.5 19V17.9861C2.5 17.71 2.72386 17.4861 3 17.4861C3.27614 17.4861 3.5 17.71 3.5 17.9861V19C3.5 20.933 5.067 22.5 7 22.5H15C16.933 22.5 18.5 20.933 18.5 19V7C18.5 5.067 16.933 3.5 15 3.5H7C5.067 3.5 3.5 5.067 3.5 7V14.986C3.5 15.2621 3.27614 15.486 3 15.486C2.72386 15.486 2.5 15.2621 2.5 14.986V7Z" fill="#D6B07D"/>
<path d="M13.0008 9.58714C12.9942 9.58462 12.3273 9.33582 12.3273 8.77516C12.3258 8.71285 12.2975 8.65354 12.2485 8.60994C12.1995 8.56635 12.1337 8.54193 12.0651 8.54193C11.9966 8.54193 11.9307 8.56635 11.8817 8.60994C11.8327 8.65354 11.8045 8.71285 11.803 8.77516C11.803 9.65473 12.7653 10.0146 12.8079 10.0301C14.2745 10.554 15.2595 11.8115 15.2595 13.1598C15.2595 14.9897 13.4884 16.5356 11.3919 16.5356C9.29537 16.5356 7.52437 14.9895 7.52437 13.1597C7.52437 11.7977 8.52296 10.5353 10.0088 10.0181L10.0248 10.012C10.0851 9.9867 11.4995 9.37956 11.4995 8.23824C11.4995 8.17506 11.4719 8.11446 11.4227 8.06978C11.3736 8.0251 11.3069 8 11.2374 8C11.1679 8 11.1013 8.0251 11.0521 8.06978C11.003 8.11446 10.9754 8.17506 10.9754 8.23824C10.9754 9.04132 9.90376 9.53571 9.81141 9.57659C8.12925 10.1659 7 11.6046 7 13.1597C7 14.9149 8.42118 16.4409 10.2882 16.883L9.93253 17.2062C9.90819 17.2283 9.88889 17.2545 9.87572 17.2834C9.86255 17.3123 9.85577 17.3433 9.85577 17.3746C9.85577 17.4059 9.86255 17.4369 9.87572 17.4658C9.88889 17.4947 9.90819 17.521 9.93253 17.5431C9.95686 17.5652 9.98575 17.5827 10.0175 17.5947C10.0493 17.6067 10.0834 17.6129 10.1178 17.6129C10.1522 17.6129 10.1863 17.6067 10.2181 17.5947C10.2499 17.5827 10.2788 17.5652 10.3031 17.5431L10.9035 16.997C10.9068 16.9941 10.9092 16.9904 10.9126 16.9873C10.9844 16.9945 11.0569 16.9999 11.1294 17.004V17.6888C11.1319 17.7505 11.1606 17.8088 11.2095 17.8516C11.2584 17.8945 11.3236 17.9184 11.3915 17.9184C11.4594 17.9184 11.5246 17.8945 11.5735 17.8516C11.6224 17.8088 11.6511 17.7505 11.6536 17.6888V17.004C11.7261 17 11.7984 16.9944 11.8706 16.9873C11.8737 16.9904 11.8763 16.9941 11.8796 16.997L12.4802 17.5431C12.5313 17.5897 12.5984 17.6129 12.6654 17.6129C12.7323 17.6129 12.7994 17.5897 12.8505 17.5431C12.8749 17.521 12.8942 17.4947 12.9074 17.4658C12.9206 17.4369 12.9274 17.4059 12.9274 17.3746C12.9274 17.3433 12.9206 17.3123 12.9074 17.2834C12.8942 17.2545 12.8749 17.2283 12.8505 17.2062L12.495 16.883C14.3619 16.441 15.7834 14.9149 15.7834 13.1597C15.7837 11.6171 14.6646 10.1813 13.0008 9.58714Z" fill="#D6B07D"/>
<path d="M11.1009 10.0898C11.1009 10.2727 10.811 10.3299 10.803 10.3314C9.24642 10.5903 8.07256 11.8063 8.07256 13.1598C8.07256 14.7464 9.49241 16.037 11.2372 16.037C11.2723 16.038 11.3072 16.0326 11.3399 16.021C11.3727 16.0095 11.4025 15.9921 11.4277 15.9699C11.4529 15.9477 11.4729 15.9211 11.4866 15.8917C11.5003 15.8623 11.5073 15.8307 11.5073 15.7988C11.5073 15.7669 11.5003 15.7353 11.4866 15.7059C11.4729 15.6765 11.4529 15.6499 11.4277 15.6277C11.4025 15.6055 11.3727 15.5881 11.3399 15.5766C11.3072 15.565 11.2723 15.5596 11.2372 15.5605C9.78131 15.5605 8.59669 14.4836 8.59669 13.1598C8.59669 12.0327 9.58573 11.0185 10.8997 10.7998C11.1505 10.7558 11.625 10.5508 11.625 10.09C11.6249 10.0268 11.5972 9.96623 11.5481 9.92156C11.4989 9.87689 11.4323 9.85179 11.3628 9.85176C11.3284 9.85174 11.2943 9.85789 11.2626 9.86985C11.2308 9.8818 11.2019 9.89934 11.1776 9.92144C11.1533 9.94355 11.134 9.96979 11.1208 9.99868C11.1077 10.0276 11.1009 10.0585 11.1009 10.0898Z" fill="#D6B07D"/>
<path d="M11.2374 11.1908C10.0434 11.1908 9.07151 12.0741 9.07151 13.1598C9.07151 14.2456 10.0434 15.1292 11.2374 15.1292C11.307 15.1291 11.3736 15.104 11.4228 15.0592C11.4719 15.0145 11.4996 14.9539 11.4996 14.8907C11.4995 14.8275 11.4718 14.767 11.4226 14.7224C11.3735 14.6777 11.3069 14.6527 11.2374 14.6526C10.3322 14.6526 9.59576 13.983 9.59576 13.1599C9.59576 12.3369 10.3322 11.6674 11.2374 11.6674C11.3069 11.6674 11.3736 11.6423 11.4228 11.5976C11.4719 11.5529 11.4995 11.4923 11.4995 11.4291C11.4995 11.3659 11.4719 11.3053 11.4228 11.2606C11.3736 11.2159 11.3069 11.1908 11.2374 11.1908Z" fill="#D6B07D"/>
<path d="M11.2374 12.5537C11.3069 12.5537 11.3736 12.5286 11.4227 12.484C11.4719 12.4393 11.4995 12.3787 11.4995 12.3155C11.4995 12.2523 11.4719 12.1917 11.4227 12.147C11.3736 12.1024 11.3069 12.0773 11.2374 12.0773C10.5807 12.0773 10.0465 12.5627 10.0465 13.1598C10.0465 13.7569 10.5807 14.2426 11.2374 14.2426C11.3069 14.2426 11.3735 14.2175 11.4226 14.1729C11.4718 14.1283 11.4995 14.0678 11.4996 14.0046C11.4996 13.8731 11.382 13.7662 11.2374 13.7662C11.0606 13.7659 10.8912 13.702 10.7662 13.5883C10.6412 13.4747 10.5709 13.3206 10.5708 13.1599C10.5709 12.9992 10.6412 12.8451 10.7662 12.7314C10.8911 12.6178 11.0606 12.5539 11.2374 12.5537ZM12.0322 15.9937C12.0835 16.0403 12.1505 16.0635 12.2176 16.0635C12.2846 16.0635 12.3516 16.0403 12.4027 15.9937C14.1216 14.4313 14.1216 11.8886 12.4027 10.3257C12.3784 10.3036 12.3495 10.286 12.3177 10.274C12.2859 10.262 12.2519 10.2558 12.2174 10.2558C12.183 10.2558 12.1489 10.262 12.1172 10.274C12.0854 10.286 12.0565 10.3036 12.0322 10.3257C12.0079 10.3478 11.9885 10.3741 11.9754 10.403C11.9622 10.4319 11.9554 10.4628 11.9554 10.4941C11.9554 10.5254 11.9622 10.5564 11.9754 10.5853C11.9885 10.6142 12.0079 10.6404 12.0322 10.6625C13.5466 12.0396 13.5466 14.2801 12.0322 15.6568C12.0078 15.6789 11.9885 15.7052 11.9754 15.7341C11.9622 15.763 11.9554 15.794 11.9554 15.8253C11.9554 15.8566 11.9622 15.8875 11.9754 15.9165C11.9885 15.9454 12.0078 15.9716 12.0322 15.9937Z" fill="#D6B07D"/>
</g>
<defs>
<clipPath id="clip0_3007_3">
<rect width="24" height="24" fill="white"/>
</clipPath>
</defs>
</svg>
