<svg width="101" height="24" viewBox="0 0 101 24" fill="none" xmlns="http://www.w3.org/2000/svg">
<g clip-path="url(#clip0_0_1)">
<path fill-rule="evenodd" clip-rule="evenodd" d="M6.85706 3.43505C7.3494 0.999026 9.72331 -0.576647 12.1593 -0.0843101L20.0008 1.5005C22.4368 1.99284 24.0125 4.36675 23.5202 6.80277L21.1429 18.565C20.6506 21.001 18.2767 24.5767 15.8407 24.0843L7.99921 23.4995C5.56319 23.0072 4.68071 23.1041 3.47985 21.1972L4.68071 22.2034C4.7354 21.9328 4.72933 22.1487 5 22.2034C5.27067 22.2581 5.71558 22.1309 5.66089 22.4015L5.46003 22.3953C5.0771 24.29 6.60531 22.6171 8.5 23L16.0388 23.1041C17.9335 23.4871 19.7798 20.2615 20.1628 18.3668L22.54 6.60467C22.9229 4.70998 21.6974 2.86361 19.8027 2.48068L11.9612 0.895872C10.0665 0.512942 8.5259 1.17513 8.14298 3.06982L8.14298 2.67878C8.08828 2.94941 7.8245 3.12453 7.55383 3.06982C7.28317 3.01512 7.1081 2.75131 7.16279 2.48068L6.85706 3.43505Z" fill="#FAF3F3"/>
<path fill-rule="evenodd" clip-rule="evenodd" d="M2.5 7C2.5 4.51472 4.51472 2.5 7 2.5H15C17.4853 2.5 19.5 4.51472 19.5 7V19C19.5 21.4853 17.4853 23.5 15 23.5H7C4.51472 23.5 2.5 21.4853 2.5 19V17.9861C2.5 17.71 2.72386 17.4861 3 17.4861C3.27614 17.4861 3.5 17.71 3.5 17.9861V19C3.5 20.933 5.067 22.5 7 22.5H15C16.933 22.5 18.5 20.933 18.5 19V7C18.5 5.067 16.933 3.5 15 3.5H7C5.067 3.5 3.5 5.067 3.5 7V14.986C3.5 15.2621 3.27614 15.486 3 15.486C2.72386 15.486 2.5 15.2621 2.5 14.986V7Z" fill="#FAF3F3"/>
<path d="M13.0008 9.58714C12.9942 9.58462 12.3273 9.33582 12.3273 8.77516C12.3258 8.71285 12.2975 8.65354 12.2485 8.60994C12.1995 8.56635 12.1337 8.54193 12.0651 8.54193C11.9966 8.54193 11.9307 8.56635 11.8817 8.60994C11.8327 8.65354 11.8045 8.71285 11.803 8.77516C11.803 9.65473 12.7653 10.0146 12.8079 10.0301C14.2745 10.554 15.2595 11.8115 15.2595 13.1598C15.2595 14.9897 13.4884 16.5356 11.3919 16.5356C9.29537 16.5356 7.52437 14.9895 7.52437 13.1597C7.52437 11.7977 8.52296 10.5353 10.0088 10.0181L10.0248 10.012C10.0851 9.9867 11.4995 9.37956 11.4995 8.23824C11.4995 8.17506 11.4719 8.11446 11.4227 8.06978C11.3736 8.0251 11.3069 8 11.2374 8C11.1679 8 11.1013 8.0251 11.0521 8.06978C11.003 8.11446 10.9754 8.17506 10.9754 8.23824C10.9754 9.04132 9.90376 9.53571 9.81141 9.57659C8.12925 10.1659 7 11.6046 7 13.1597C7 14.9149 8.42118 16.4409 10.2882 16.883L9.93253 17.2062C9.90819 17.2283 9.88889 17.2545 9.87572 17.2834C9.86255 17.3123 9.85577 17.3433 9.85577 17.3746C9.85577 17.4059 9.86255 17.4369 9.87572 17.4658C9.88889 17.4947 9.90819 17.521 9.93253 17.5431C9.95686 17.5652 9.98575 17.5827 10.0175 17.5947C10.0493 17.6067 10.0834 17.6129 10.1178 17.6129C10.1522 17.6129 10.1863 17.6067 10.2181 17.5947C10.2499 17.5827 10.2788 17.5652 10.3031 17.5431L10.9035 16.997C10.9068 16.9941 10.9092 16.9904 10.9126 16.9873C10.9844 16.9945 11.0569 16.9999 11.1294 17.004V17.6888C11.1319 17.7505 11.1606 17.8088 11.2095 17.8516C11.2584 17.8945 11.3236 17.9184 11.3915 17.9184C11.4594 17.9184 11.5246 17.8945 11.5735 17.8516C11.6224 17.8088 11.6511 17.7505 11.6536 17.6888V17.004C11.7261 17 11.7984 16.9944 11.8706 16.9873C11.8737 16.9904 11.8763 16.9941 11.8796 16.997L12.4802 17.5431C12.5313 17.5897 12.5984 17.6129 12.6654 17.6129C12.7323 17.6129 12.7994 17.5897 12.8505 17.5431C12.8749 17.521 12.8942 17.4947 12.9074 17.4658C12.9206 17.4369 12.9274 17.4059 12.9274 17.3746C12.9274 17.3433 12.9206 17.3123 12.9074 17.2834C12.8942 17.2545 12.8749 17.2283 12.8505 17.2062L12.495 16.883C14.3619 16.441 15.7834 14.9149 15.7834 13.1597C15.7837 11.6171 14.6646 10.1813 13.0008 9.58714Z" fill="white"/>
<path d="M11.1009 10.0898C11.1009 10.2727 10.811 10.3299 10.803 10.3314C9.24642 10.5903 8.07256 11.8063 8.07256 13.1598C8.07256 14.7464 9.49241 16.037 11.2372 16.037C11.2723 16.038 11.3072 16.0326 11.3399 16.021C11.3727 16.0095 11.4025 15.9921 11.4277 15.9699C11.4529 15.9477 11.4729 15.9211 11.4866 15.8917C11.5003 15.8623 11.5073 15.8307 11.5073 15.7988C11.5073 15.7669 11.5003 15.7353 11.4866 15.7059C11.4729 15.6765 11.4529 15.6499 11.4277 15.6277C11.4025 15.6055 11.3727 15.5881 11.3399 15.5766C11.3072 15.565 11.2723 15.5596 11.2372 15.5605C9.78131 15.5605 8.59669 14.4836 8.59669 13.1598C8.59669 12.0327 9.58573 11.0185 10.8997 10.7998C11.1505 10.7558 11.625 10.5508 11.625 10.09C11.6249 10.0268 11.5972 9.96623 11.5481 9.92156C11.4989 9.87689 11.4323 9.85179 11.3628 9.85176C11.3284 9.85174 11.2943 9.85789 11.2626 9.86985C11.2308 9.8818 11.2019 9.89933 11.1776 9.92144C11.1533 9.94355 11.134 9.96979 11.1208 9.99867C11.1077 10.0276 11.1009 10.0585 11.1009 10.0898Z" fill="white"/>
<path d="M11.2374 11.1908C10.0434 11.1908 9.07151 12.0741 9.07151 13.1598C9.07151 14.2456 10.0434 15.1292 11.2374 15.1292C11.307 15.1291 11.3736 15.104 11.4228 15.0592C11.4719 15.0145 11.4996 14.9539 11.4996 14.8907C11.4995 14.8275 11.4718 14.767 11.4226 14.7224C11.3735 14.6777 11.3069 14.6527 11.2374 14.6526C10.3322 14.6526 9.59576 13.983 9.59576 13.1599C9.59576 12.3369 10.3322 11.6674 11.2374 11.6674C11.3069 11.6674 11.3736 11.6423 11.4228 11.5976C11.4719 11.5529 11.4995 11.4923 11.4995 11.4291C11.4995 11.3659 11.4719 11.3053 11.4228 11.2606C11.3736 11.2159 11.3069 11.1908 11.2374 11.1908Z" fill="white"/>
<path d="M11.2374 12.5537C11.3069 12.5537 11.3736 12.5286 11.4227 12.484C11.4719 12.4393 11.4995 12.3787 11.4995 12.3155C11.4995 12.2523 11.4719 12.1917 11.4227 12.147C11.3736 12.1024 11.3069 12.0773 11.2374 12.0773C10.5807 12.0773 10.0465 12.5627 10.0465 13.1598C10.0465 13.7569 10.5807 14.2426 11.2374 14.2426C11.3069 14.2426 11.3735 14.2175 11.4226 14.1729C11.4718 14.1283 11.4995 14.0678 11.4996 14.0046C11.4996 13.8731 11.382 13.7662 11.2374 13.7662C11.0606 13.766 10.8912 13.702 10.7662 13.5883C10.6412 13.4747 10.5709 13.3206 10.5708 13.1599C10.5709 12.9992 10.6412 12.8451 10.7662 12.7314C10.8911 12.6178 11.0606 12.5539 11.2374 12.5537ZM12.0322 15.9937C12.0835 16.0403 12.1505 16.0635 12.2176 16.0635C12.2846 16.0635 12.3516 16.0403 12.4027 15.9937C14.1216 14.4313 14.1216 11.8886 12.4027 10.3257C12.3784 10.3036 12.3495 10.286 12.3177 10.274C12.2859 10.262 12.2519 10.2558 12.2174 10.2558C12.183 10.2558 12.1489 10.262 12.1172 10.274C12.0854 10.286 12.0565 10.3036 12.0322 10.3257C12.0079 10.3478 11.9885 10.3741 11.9754 10.403C11.9622 10.4319 11.9554 10.4628 11.9554 10.4941C11.9554 10.5254 11.9622 10.5564 11.9754 10.5853C11.9885 10.6142 12.0079 10.6404 12.0322 10.6625C13.5466 12.0396 13.5466 14.2801 12.0322 15.6568C12.0078 15.6789 11.9885 15.7052 11.9754 15.7341C11.9622 15.763 11.9554 15.794 11.9554 15.8253C11.9554 15.8566 11.9622 15.8875 11.9754 15.9165C11.9885 15.9454 12.0078 15.9716 12.0322 15.9937Z" fill="white"/>
</g>
<path d="M31.536 17.132C30.656 17.132 29.904 16.944 29.28 16.568C28.664 16.184 28.196 15.648 27.876 14.96C27.556 14.272 27.396 13.464 27.396 12.536C27.396 11.64 27.584 10.848 27.96 10.16C28.336 9.472 28.852 8.94 29.508 8.564C30.164 8.18 30.9 7.988 31.716 7.988C32.332 7.988 33.072 8.084 33.936 8.276L34.332 8.348L34.212 10.508H33.408L33.108 8.984C32.996 8.888 32.8 8.808 32.52 8.744C32.248 8.672 31.912 8.636 31.512 8.636C31 8.636 30.544 8.784 30.144 9.08C29.744 9.368 29.428 9.796 29.196 10.364C28.972 10.932 28.86 11.612 28.86 12.404C28.86 13.156 28.96 13.84 29.16 14.456C29.36 15.072 29.664 15.564 30.072 15.932C30.48 16.292 30.984 16.472 31.584 16.472C32.008 16.472 32.332 16.436 32.556 16.364C32.788 16.292 32.984 16.188 33.144 16.052L33.648 14.876L34.404 14.972L34.116 16.676C33.948 16.684 33.7 16.74 33.372 16.844C33.084 16.932 32.804 17 32.532 17.048C32.268 17.104 31.936 17.132 31.536 17.132ZM38.3198 8.012H39.6398L42.5558 16.292L43.2998 16.412V17H40.1318V16.412L41.1278 16.292L40.5638 14.516H37.0598L36.4958 16.292L37.5278 16.412V17H34.6838V16.412L35.4278 16.292L38.3198 8.012ZM39.0758 9.932L38.7758 8.876L38.4878 9.956L37.2758 13.808H40.3358L39.0758 9.932ZM43.7004 16.412L44.6964 16.292V8.828L43.7604 8.672V8.084H45.3324C45.5564 8.084 45.8604 8.068 46.2444 8.036C46.6444 8.004 46.9564 7.988 47.1804 7.988C48.3564 7.988 49.1924 8.18 49.6884 8.564C50.1924 8.94 50.4444 9.536 50.4444 10.352C50.4444 10.92 50.2844 11.44 49.9644 11.912C49.6524 12.384 49.2204 12.704 48.6684 12.872C48.9244 13.008 49.1604 13.244 49.3764 13.58C49.6004 13.908 49.8724 14.368 50.1924 14.96C50.4404 15.408 50.6284 15.736 50.7564 15.944C50.8924 16.152 51.0204 16.268 51.1404 16.292L51.6084 16.412V17H49.9524C49.8244 17 49.6804 16.864 49.5204 16.592C49.3604 16.312 49.1484 15.884 48.8844 15.308C48.5964 14.676 48.3444 14.176 48.1284 13.808C47.9204 13.432 47.7124 13.192 47.5044 13.088C46.6484 13.088 46.1404 13.084 45.9804 13.076V16.292L47.1684 16.412V17H43.7004V16.412ZM47.4084 12.44C47.9204 12.44 48.3244 12.272 48.6204 11.936C48.9164 11.6 49.0644 11.1 49.0644 10.436C49.0644 9.852 48.9124 9.408 48.6084 9.104C48.3124 8.792 47.7964 8.636 47.0604 8.636C46.8044 8.636 46.5484 8.652 46.2924 8.684C46.1324 8.7 46.0284 8.708 45.9804 8.708V12.428C46.1004 12.436 46.3484 12.44 46.7244 12.44H47.4084ZM53.1457 8.828L52.2097 8.684V8.084H53.7817C54.0297 8.084 54.3857 8.068 54.8497 8.036C55.3137 8.004 55.6617 7.988 55.8937 7.988C57.3817 7.988 58.4857 8.364 59.2057 9.116C59.9337 9.86 60.2977 10.908 60.2977 12.26C60.2977 13.204 60.1097 14.044 59.7337 14.78C59.3657 15.508 58.8457 16.076 58.1737 16.484C57.5017 16.892 56.7297 17.096 55.8577 17.096C55.6657 17.096 55.3377 17.08 54.8737 17.048C54.3937 17.016 54.0337 17 53.7937 17H52.1497V16.412L53.1457 16.292V8.828ZM54.4177 16.328C54.6977 16.392 55.0577 16.424 55.4977 16.424H55.8577C56.4577 16.416 56.9857 16.264 57.4417 15.968C57.9057 15.672 58.2657 15.232 58.5217 14.648C58.7777 14.056 58.9057 13.34 58.9057 12.5C58.9057 11.236 58.6297 10.276 58.0777 9.62C57.5337 8.964 56.7097 8.636 55.6057 8.636C55.3737 8.636 55.0977 8.652 54.7777 8.684C54.6417 8.708 54.5217 8.72 54.4177 8.72V16.328ZM64.1714 17.132C63.7554 17.132 63.3834 17.096 63.0554 17.024C62.7274 16.952 62.3674 16.856 61.9754 16.736C61.7354 16.648 61.5554 16.6 61.4354 16.592L61.5314 14.42H62.2994L62.5034 15.98C62.6394 16.108 62.8594 16.224 63.1634 16.328C63.4754 16.424 63.8154 16.472 64.1834 16.472C64.7914 16.472 65.2514 16.336 65.5634 16.064C65.8834 15.792 66.0434 15.416 66.0434 14.936C66.0434 14.624 65.9554 14.356 65.7794 14.132C65.6114 13.908 65.3834 13.716 65.0954 13.556C64.8154 13.396 64.4274 13.208 63.9314 12.992C63.4834 12.792 63.0914 12.588 62.7554 12.38C62.4274 12.172 62.1394 11.896 61.8914 11.552C61.6514 11.2 61.5314 10.78 61.5314 10.292C61.5314 9.852 61.6474 9.46 61.8794 9.116C62.1194 8.764 62.4594 8.488 62.8994 8.288C63.3474 8.088 63.8674 7.988 64.4594 7.988C64.8274 7.988 65.1514 8.016 65.4314 8.072C65.7194 8.128 66.0434 8.204 66.4034 8.3C66.5634 8.356 66.6994 8.392 66.8114 8.408L66.7394 10.424H66.0074L65.7674 8.948C65.6874 8.868 65.5194 8.792 65.2634 8.72C65.0154 8.648 64.7434 8.612 64.4474 8.612C63.8954 8.612 63.4754 8.728 63.1874 8.96C62.9074 9.192 62.7674 9.528 62.7674 9.968C62.7674 10.288 62.8514 10.556 63.0194 10.772C63.1954 10.988 63.4114 11.172 63.6674 11.324C63.9234 11.476 64.3314 11.684 64.8914 11.948C65.4114 12.196 65.8354 12.42 66.1634 12.62C66.4914 12.82 66.7714 13.084 67.0034 13.412C67.2434 13.732 67.3634 14.116 67.3634 14.564C67.3634 14.988 67.2434 15.396 67.0034 15.788C66.7714 16.18 66.4114 16.504 65.9234 16.76C65.4434 17.008 64.8594 17.132 64.1714 17.132ZM74.0084 13.592H69.1604V12.716H74.0084V13.592ZM78.8316 8.72L76.7676 8.792L76.3476 11.3H75.5556L75.7596 8.084H83.2356L83.3796 11.3H82.6236L82.2276 8.792L80.1516 8.72V16.292L81.8556 16.412V17H77.2716V16.412L78.8316 16.292V8.72ZM87.8482 17.132C87.0322 17.132 86.3402 16.944 85.7722 16.568C85.2122 16.192 84.7882 15.664 84.5002 14.984C84.2122 14.296 84.0682 13.5 84.0682 12.596C84.0682 11.676 84.2402 10.868 84.5842 10.172C84.9362 9.476 85.4162 8.94 86.0242 8.564C86.6322 8.18 87.3162 7.988 88.0762 7.988C89.3242 7.988 90.2762 8.384 90.9322 9.176C91.5962 9.96 91.9282 11.048 91.9282 12.44C91.9282 13.376 91.7482 14.2 91.3882 14.912C91.0362 15.616 90.5482 16.164 89.9242 16.556C89.3082 16.94 88.6162 17.132 87.8482 17.132ZM88.0042 8.612C87.2282 8.612 86.6162 8.952 86.1682 9.632C85.7202 10.304 85.4962 11.292 85.4962 12.596C85.4962 13.796 85.7122 14.748 86.1442 15.452C86.5842 16.148 87.1962 16.496 87.9802 16.496C88.7482 16.496 89.3562 16.148 89.8042 15.452C90.2602 14.756 90.4882 13.756 90.4882 12.452C90.4882 11.244 90.2722 10.304 89.8402 9.632C89.4082 8.952 88.7962 8.612 88.0042 8.612ZM92.8723 16.412L93.8683 16.292V8.828L92.9323 8.672V8.084H94.5043C94.7283 8.084 95.0323 8.068 95.4163 8.036C95.8163 8.004 96.1283 7.988 96.3523 7.988C97.5283 7.988 98.3643 8.18 98.8603 8.564C99.3643 8.94 99.6163 9.536 99.6163 10.352C99.6163 10.92 99.4563 11.44 99.1363 11.912C98.8243 12.384 98.3923 12.704 97.8403 12.872C98.0963 13.008 98.3323 13.244 98.5483 13.58C98.7723 13.908 99.0443 14.368 99.3643 14.96C99.6123 15.408 99.8003 15.736 99.9283 15.944C100.064 16.152 100.192 16.268 100.312 16.292L100.78 16.412V17H99.1243C98.9963 17 98.8523 16.864 98.6923 16.592C98.5323 16.312 98.3203 15.884 98.0563 15.308C97.7683 14.676 97.5163 14.176 97.3003 13.808C97.0923 13.432 96.8843 13.192 96.6763 13.088C95.8203 13.088 95.3123 13.084 95.1523 13.076V16.292L96.3403 16.412V17H92.8723V16.412ZM96.5803 12.44C97.0923 12.44 97.4963 12.272 97.7923 11.936C98.0883 11.6 98.2363 11.1 98.2363 10.436C98.2363 9.852 98.0843 9.408 97.7803 9.104C97.4843 8.792 96.9683 8.636 96.2323 8.636C95.9763 8.636 95.7203 8.652 95.4643 8.684C95.3043 8.7 95.2003 8.708 95.1523 8.708V12.428C95.2723 12.436 95.5203 12.44 95.8963 12.44H96.5803Z" fill="white"/>
<defs>
<clipPath id="clip0_0_1">
<rect width="24" height="24" fill="white"/>
</clipPath>
</defs>
</svg>
